<?xml version="1.0" encoding="utf-8"?><svg xmlns="http://www.w3.org/2000/svg" xmlns:xlink="http://www.w3.org/1999/xlink"><symbol viewBox="0 0 22 24" id="basket" xmlns="http://www.w3.org/2000/svg"><g clip-path="url(#aclip0)"><path d="M10.363 18.443a2.046 2.046 0 00-2.045 2.042 2.046 2.046 0 004.09 0 2.046 2.046 0 00-2.045-2.042zm6.134 0a2.046 2.046 0 00-2.045 2.042 2.046 2.046 0 004.089 0 2.046 2.046 0 00-2.044-2.042zm3.978-8.199L7.413 6.891a.614.614 0 00-.75.73L8.67 16.4h-.786L5.482 5.895a.613.613 0 00-.474-.464l-4.27-.882A.614.614 0 00.489 5.75l3.885.802L6.797 17.15a.613.613 0 00.598.477h12.07a.615.615 0 00.607-.53l.858-6.175a.613.613 0 00-.455-.678zm-8.14 3.91a.613.613 0 01-1.227 0v-2.696a.613.613 0 011.227 0v2.696zm2.625 0a.613.613 0 01-1.227 0v-1.88a.613.613 0 011.227 0v1.88zm2.625 0a.613.613 0 01-1.227 0v-1.226a.613.613 0 011.227 0v1.226z"/></g><path fill-rule="evenodd" clip-rule="evenodd" d="M16.268 4.568a2.996 2.996 0 00-1.693-.523c-.627 0-1.21.193-1.693.523-.28-.843-.492-1.752-.492-2.383C12.39.98 13.37 0 14.575 0s2.185.98 2.185 2.185c0 .631-.212 1.54-.492 2.383zm-4.722 2.274l.024.006v-.011l-.024.005zm4.972 1.217c-1.333-.33-2.766-.681-4.129-1.013a2.185 2.185 0 114.129 1.013zm4.436 1.103c-.866-.217-2.155-.538-3.618-.9a2.995 2.995 0 00.243-1.425c.87.18 1.762.45 2.308.765.596.344.969.928 1.067 1.56zM9.869 6.439c-.36-.086-.706-.167-1.03-.243a2.19 2.19 0 01-.376-2.667 2.188 2.188 0 013.147-.7c.098.738.338 1.599.61 2.353a3.01 3.01 0 00-.449.774c-.628.113-1.305.278-1.902.483zm10.124.075a3.43 3.43 0 01-.217.114c-.696-.295-1.587-.526-2.397-.672a3.01 3.01 0 00-.449-.774c.262-.727.494-1.553.599-2.273.095-.067.189-.128.278-.18a2.188 2.188 0 012.986.8 2.188 2.188 0 01-.8 2.985z"/><defs><clipPath id="aclip0"><path transform="translate(0 3.064)" d="M0 0h20.936v20.936H0z"/></clipPath></defs></symbol><symbol viewBox="0 0 302.22 129.12" id="bus" xmlns="http://www.w3.org/2000/svg"><g data-name="Слой 2"><g data-name="Слой 1" fill-rule="evenodd"><path d="M88.64 118c-.64-27 .36-55.44-.1-82.5-.18-11-.2-8 1.93-9.35l-.07 91.75 130.35.1c-9.61-43.4 54.56-43.91 45.63-.4 6.2.1 19.88-2.19 26.5-3.4 12.76-2.33 9.39-12.52 7.43-15l-1.79-1.68c3.19-26.47 5-94.3-23.39-96.92C261.7-.65 174.56.44 153.15.43 87.1.39 84.62-3.06 33.6 35c-3 2.22-5.42 4.32-8.39 6.65s-4.93 4.66-7.91 7.07C4.38 59.12 5.53 77.21 5.52 97.52c-.44 1.88-7.62 3-4.91 15.69.83 3.89.11 1.9 2.19 3.75 4.67 2.15 25.53 1.37 32.17.72-8.83-44.26 55.64-42.32 45.61.26zM74.33 12.72c.18-.14 2.16-1.41 2.47-1.56a12.46 12.46 0 016.35-1.25h191c6.79 0 7.19-1.31 9.22 4.88l-211.44-.13zm209.54 14.2c2.12 2.86 5.93 23.44 2.79 28-2.39 3.49-25.06 1.92-30.51 1.92h-128c-19 0-22.08-2-33.07-30.34zM25.57 56.43c2.07-5.6 17.48-16.08 22.91-20.57 13.43-11.1 12.84-9.75 34.59-9.29 1 28.8 2.08 30.37-13.92 30.26-11.85-.09-32.9 1.25-43.58-.4zM71 62.52c3.17-1.67 8.76-1.39 11.61-.39.47 3.44-.86 3-5.41 3-4.97.03-5.2.87-6.2-2.61zm219.57 10c0-6 1.42-7.3 7.67-7.28-.14 6.81.17 20.54-2.05 26.33-7.43-.51-5.65-8.03-5.66-19.05zM8.75 68.91a14.2 14.2 0 019.69.27c4.91 22.32-3.4 20-10.33 19.93z"/><path d="M77.3 114.52c3.5-12.34-5.07-22.64-14.17-25-11.51-3-22 4.36-24.64 13.36-7.81 26.67 31.59 37.12 38.81 11.64M52.24 98.29c1.85-2.75 5.95-2.18 9-1.81-.93 3.72-1 5.34-3.13 8.62-2.76-2.13-2.86-4.1-3.37-7.66-1.64 2.89.07 2.43-2.5.85zm8.09 8.08c.26-3.37 2.06-5.37 3.25-8.37 4.06 2 4 3.77 6.14 6.39-1.1.71-.39 1.08-1.8.65-3.55-1.11-.47.28-.6-.93a.76.76 0 00-.17-.4c-2.5 1.91-3.31 2.51-6.82 2.66zm-11.29 7c-.79.32-2.42.85-3.08 1.22l-.42-8.59c1.33-4.45 2.28-6.28 6.7-7.68 1.38 3.77 2.33 3.76 3.18 8.43-5.19-1.25-3.57-2.25-8.61-1.23 3.41 1.66 5.66.82 7.08 4.26zm12.86-3.9c1.16-2-.91-1.3 3.57-2.74a36 36 0 015.29-1l-.6 6.79zm-1.51 2.19a11.88 11.88 0 018.24 4c-2.16 3.1-1.43 2-4.21 4.31-1.85-1.86-1.07-1-2.43-3.31-2.07-3.59-.99-1.73-1.6-4.95zM49 113.42c3.35-1 2.58-1.44 6.3-2.06-.57 3.83-.91 4.56-2.94 7.16.1.08.32 0 .34.15.62 3.81.38.1.65.44.08.1.17-.53.73 1.38-4.37-.88-5.33-2.12-7.21-5.63zm9.11-.37l3.25 8.47-6.85.42c.65-3.94.73-6.72 3.64-8.89zM223.41 111.52c2.05 24.25 42 22.69 40.24-4A20.39 20.39 0 00241.11 89c-10.81 1.16-18.72 10.44-17.7 22.57m19.74-6.44a6.47 6.47 0 01-1.31-2.21 18 18 0 01-.8-2.35 24.94 24.94 0 01-.93-4.15l6.63-.1c-.59 3.79-.74 6.46-3.59 8.76zm-10.92.43c-.67-2.89 1.65-5.61 5.43-7.47 1.13 2.81 3 5 3.37 8.34-3.25-.19-4.61-1.17-6.88-2.61-.07.1-.12.32-.15.35zm20 8l-4.86-3.67c1.4-3.57 3.44-2.51 7-4.28-4.94-1.12-3.39-.08-8.57 1.25.77-4 2-6.27 4.3-8.5 1.36.71 1.79.25 3.48 2.75 4.54 6.71 1.82 10.57 1.72 13.57-.71-.48-2.21-.9-3.06-1.21zm-19.17 1c-2-1-2.83-4.55-2.39-6.7.75-3.68.59-1.34 1.55-2.31l7.14 3c-1.06 2.14 1.84.75-2.71 2.6-1.49.6-2 .42-3.83.67 1.67 1.93 1.42.36.25 2.7zm0 0c3.48-1.47 3.76-2.64 7.89-2.8-.33 5.42-2.43 2.3-.81 7.81 1.4-2.88.68-5.19 4.09-6.68l2.54 9c-4.45.15-4.53.46-8.64-1.52-3.42-1.65-5.62-2.64-5.07-5.85m19.17-1l2.16 1.43c-1.35 3.19-.32 1.95-4.25 4.9a13.34 13.34 0 01-4.17-8.41c3.85.56 2.8.99 6.27 2.03z"/></g></g></symbol><symbol viewBox="0 0 344.96 344.96" id="check" xmlns="http://www.w3.org/2000/svg"><g data-name="Слой 2"><path d="M321.85 86.24l-40-23.11-23.1-40H212.5L172.48 0l-40 23.11H86.24l-23.11 40-40 23.1v46.21L0 172.48l23.11 40v46.21l40 23.11 23.11 40h46.21l40 23.1 40-23.11h46.21l23.11-40 40-23.11V212.5l23.11-40-23.11-40V86.24zM156.91 243.07a16.79 16.79 0 01-23.34 0l-50.45-50.44a16.19 16.19 0 010-22.89l13.35-13.35a16.19 16.19 0 0122.89 0l25.87 25.87 80.34-80.35a16.19 16.19 0 0122.89 0l13.35 13.35a16.19 16.19 0 010 22.89z" data-name="Capa 1"/></g></symbol><symbol viewBox="0 0 106.08 192.66" id="chevron-right" xmlns="http://www.w3.org/2000/svg"><defs><clipPath id="da" transform="translate(0 -.3)"><path d="M0 0h106.8v193.92H0z"/></clipPath></defs><g data-name="Слой 2"><g clip-path="url(#da)" data-name="Слой 1"><path d="M103.26 89.46L16.63 2.85A9.73 9.73 0 102.85 16.59l79.77 79.74-79.76 79.73a9.733 9.733 0 1013.77 13.76l86.64-86.61a9.8 9.8 0 000-13.75z"/></g></g></symbol><symbol viewBox="0 0 24 24" id="fb" xmlns="http://www.w3.org/2000/svg"><path d="M13.397 20.997v-8.196h2.765l.411-3.209h-3.176V7.548c0-.926.258-1.56 1.587-1.56h1.684v-2.86A22.108 22.108 0 0014.201 3c-2.444 0-4.122 1.492-4.122 4.231v2.355H7.332v3.21h2.753v8.201h3.312z"/></symbol><symbol viewBox="0 0 218.54 75.61" id="hatchback" xmlns="http://www.w3.org/2000/svg"><defs><style>.fcls-1{fill:#090217;fill-rule:evenodd}</style></defs><g id="fСлой_2" data-name="Слой 2"><g id="fСлой_1-2" data-name="Слой 1"><path class="fcls-1" d="M.94 62.89C4.48 64.18 8.92 64 13.43 64c-4.63-35.56 46.36-33.6 40.94-.34l107.34.34c-4.57-35.24 45.52-34.69 41-.25 6.87-1.06 12.68-4 14.6-8.94 4-10.27-3.06-14.79-4.35-17A133.08 133.08 0 00203.83 24c-4.09-5.4-1-2.32-7.05-5-3.26-1.43-4.57-3.51-6.18-5.37 3.05-2.87 2.05-.5 4.07-4.28-11.21-1.11-15-4.8-26.44-6.77A196.49 196.49 0 00137.15 0C79.29-.69 76 22.91 60.46 24.26c-9.92.85-20.27 1.54-30.31 2.35-11.24.9-18.27 2.21-23.31 9.73-1.54 2.29-1.41 3.48-2.6 5.34-2.7 4.21-2.58.32-3.84 5.15-.86 3.34-.16 13.24.54 16.06m73.65-40.27C77 19.86 81.85 17.2 85 15.46 98.93 7.71 112.84 3 130.07 4.79l-5.91 17.8-50.72 1.56zm62.19-17.49c6.12-1.5 40.63 1.49 43.76 7.26 3 9.57-10.34 8.67-18.38 9-9.43.33-18.85.68-28.37.9zM200 22.23c2.3.7 5.6 6.16 6.76 8.4-4.45.55-9.32.44-12.76-.87-1.16-4.13-.59-9.56 6-7.53zm-41.91 7.6c-3.61-1.07-.79.69-2.33-2.19 2-1.37-2-.48 3.31-1.4 3.62-.63 6.69-.41 9 1.4-1.37 3.02-6.24 3.29-9.94 2.19zm-41 1.53c-5.58 0-5 .7-6.13-3.19 2.68-1.29 9.57-1 12.3.47-.94 3.74-1.07 2.71-6.11 2.72zM7.54 43.27c1.82-9.19 11.31-13.49 22.35-12.45-5 4.95-12.99 11.01-22.35 12.45zM1.81 58v-6.52l6.19.96c.74 5.8-1 5.42-6.19 5.56z"/><path class="fcls-1" d="M27.92 43.13c-20.33 8.38-9.19 38 11.32 31.57C60.67 68 49 34.46 27.92 43.13m6.23 12.29c-.4-.33-1.59-.32-2.15-2.92-1.58-7.23.16-3.09 1.15-4.47.04-.03 8.02-1.67 1 7.39zm-6-5.55c2.73 1.88 3.41 3.53 3.57 7l-7.16-3.15zm7.75 7c1.06-5.87 2-5.9 4.48-7.13L43 52.46c-1.7 3.15-3 3.54-7.1 4.37zm-12.59-.49c3.65.11 5.46.5 7.4 2.36-2.3 2.15-3.71 2.26-7.51 2.37zm17 4.33c-3.11-1.2-2-1-3-2 1.24-1.74 4.57-2.15 7.46-2.51l-.57 5.66c-1.2-.47-2.4-.6-3.94-1.19zm-15.18 4c2.06-3.09 3.67-3.59 6.69-3.62-.13 1.89.13 1.69-1.17 4a5 5 0 01-1.26 1.72zm17.81.08l-4.22 3.15-2.55-7.2a12.3 12.3 0 014.44 1.53c2.62 1.54 1.44 1.08 2.28 2.45zm-8.74-2.61c1.88 2.23 2.19 4.28 2.15 7.27l-4.53.13c-.11-3.89-.08-5.51 2.33-7.47zm144.45-19.6c-22.77 5.74-13.51 37.81 7.88 32.42 20.76-5.24 13.45-37.8-7.88-32.42m3.5 5.41c.58.29 5.38-1.27 1.43 5.77-.79 1.41-.69.88-1.43 1.65a5.58 5.58 0 01-2-3.15c-1.49-6.12-.65-3.17 2-4.26zm2.19 9c.2-2.39.08-2.49.95-4.21 1.33-2.62 1.55-2.12 2.86-2.89l3.42 3.86zm-11.29-1.33l6 2.52-3 3.07c-.18.18-.47.47-.69.72 4.11-1.2 2.59-1.53 4.83-.33l-2.79 6.16c-6.62-3.16-8.65-14.83 0-18.14 1.2 2.93 2.12 3.62 2.81 7.08-3.21-.49-5.58-2.74-7.16-1.08zm12.51 3c2.2-2 3.86-2.33 7.29-2.09l.08 4.25c-3.8.32-5.32.04-7.37-2.18zm-1.19 2.21c3.31.38 4.89 1 6.71 3.79l-4.17 2.17c-2.78-2.92-1.91-3.61-2.54-5.98zm-2.22 1.27c2.18 2.12 2.36 3.63 2.28 7.32h-4.51c-.09-3.57.01-5.01 2.23-7.34z"/></g></g></symbol><symbol viewBox="0 0 24 24" id="instagram" xmlns="http://www.w3.org/2000/svg"><path d="M11.999 7.377a4.624 4.624 0 100 9.248 4.624 4.624 0 000-9.248zm0 7.627a3.004 3.004 0 110-6.008 3.004 3.004 0 010 6.008zm4.807-6.719a1.078 1.078 0 100-2.156 1.078 1.078 0 000 2.156z"/><path d="M20.533 6.11A4.605 4.605 0 0017.9 3.48a6.607 6.607 0 00-2.186-.42c-.963-.042-1.268-.054-3.71-.054s-2.755 0-3.71.054a6.554 6.554 0 00-2.184.42 4.6 4.6 0 00-2.633 2.63 6.585 6.585 0 00-.419 2.186c-.043.962-.056 1.267-.056 3.71 0 2.442 0 2.753.056 3.71.015.748.156 1.486.419 2.187a4.61 4.61 0 002.634 2.632 6.583 6.583 0 002.185.45c.963.042 1.268.055 3.71.055s2.755 0 3.71-.055a6.616 6.616 0 002.186-.42 4.613 4.613 0 002.633-2.632c.263-.7.404-1.438.419-2.186.043-.962.056-1.267.056-3.71s0-2.753-.056-3.71a6.583 6.583 0 00-.421-2.217zm-1.218 9.533a5.046 5.046 0 01-.311 1.688 2.987 2.987 0 01-1.712 1.71c-.535.2-1.1.305-1.67.312-.95.044-1.218.055-3.654.055-2.438 0-2.687 0-3.655-.055a4.961 4.961 0 01-1.67-.311 2.984 2.984 0 01-1.718-1.711 5.08 5.08 0 01-.311-1.67c-.043-.95-.053-1.217-.053-3.653 0-2.437 0-2.686.053-3.655a5.038 5.038 0 01.311-1.687c.305-.79.93-1.41 1.719-1.712a5.01 5.01 0 011.669-.311c.95-.043 1.218-.055 3.655-.055s2.687 0 3.654.055a4.96 4.96 0 011.67.31 2.99 2.99 0 011.712 1.713 5.06 5.06 0 01.311 1.669c.043.95.054 1.218.054 3.655 0 2.436 0 2.698-.043 3.654h-.011v-.001z"/></symbol><symbol viewBox="0 0 29.04 37.68" id="mark" xmlns="http://www.w3.org/2000/svg"><path d="M14.52 0A14.53 14.53 0 000 14.52C0 20.24 2.4 26 6.93 31.26a37.15 37.15 0 006.88 6.21 1.31 1.31 0 001.42 0 37.15 37.15 0 006.88-6.21C26.64 26 29 20.24 29 14.52A14.53 14.53 0 0014.52 0zm0 20.28a5.76 5.76 0 115.76-5.76 5.76 5.76 0 01-5.76 5.76z" data-name="Слой 2"/></symbol><symbol viewBox="0 0 231.39 75.94" id="sedan" xmlns="http://www.w3.org/2000/svg"><defs><style>.icls-1{fill:#d7b46a;fill-rule:evenodd}</style></defs><g id="iСлой_2" data-name="Слой 2"><g id="iСлой_1-2" data-name="Слой 1"><path class="icls-1" d="M.9 63.2c3.37 1.23 8.1 1.12 12.44 1.15C9 28.41 59.46 30.47 54.32 64l107.35.3c-4.75-34.42 44.71-35.44 41-.32 29.35-4 29.35-4.52 28.42-20.1-.44-7.29-2.34-3.77-3.38-8.26-.83-3.57.19-6.54-1.65-10.71-3.32-7.5-9.68-4.56-18-5.58-3.09-.38-12.51-6-16.46-7.89-27.83-13.07-75.36-16.18-102-3a126.14 126.14 0 00-15.15 8.85C68 21.67 67.89 24 57.79 24.74s-35.28 1.63-42.95 5c-8.29 3.55-6.78 7.17-11.09 12.85C.86 46.4.21 43.32 0 50.9c-.1 4.17 0 8.93.87 12.3m72.3-38.88C76.07 20 90.4 12.54 97 9.87a70.55 70.55 0 0133.11-4.75l-6 17.78zm63.92-19.15c8.43-.79 40.36 1.81 43.36 7.58 2.93 9.57-10.72 8.67-18.68 8.91-9.31.29-18.6.64-28.05.88zm27 24.94c-4.4-.06-4.38.85-5.9-2.13 2.45-1.89 2-1.4 5.89-1.45 4.11 0 4.42.06 6.48 1.45-1.03 1.72.27 2.22-6.49 2.13zm-50.64 1.38c-3-1.3-.73.43-1.36-2.51 3-1.67 9.08-1.68 12 0-.68 3.2 2 1.66-2.09 2.69zM7.42 43.58C9.49 34.4 18.6 30 29.84 31.14a34.54 34.54 0 01-9.92 7.66 39.38 39.38 0 01-12.5 4.78zm208.38-7.27c-2-8.39 1.37-8 9.36-8l.37 9.3zM1.74 58.35v-6.5l6.26.91c.56 5.73-1.12 5.42-6.26 5.59z"/><path class="icls-1" d="M27.45 43.9c-5.19 2.47-6.18 2.41-8.64 7.81a16.79 16.79 0 0021.75 22.78c20-8.36 7-40.2-13.11-30.59m6.64 11.79c-.4-.33-1.58-.28-2.15-2.85-1.59-7.28.21-3.18 1.15-4.52.04.01 7.68-1.17 1 7.37zm-6-5.52c2.76 1.95 3.44 3.51 3.57 7l-6.85-2.85c1.33-3.08 1.13-2.38 3.28-4.15zM38.76 50c3.69 1.16 1.71-.21 4.17 2.8-1.66 3-3.13 3.51-7.34 4.2zm-15.52 6.71c4.71 0 4.5.16 7.32 2.27-2.83 2.54-3.42 2.35-7.37 2.37zm18.11 0c5.29-.34 2.6-1.11 3.29 3.25-1.58 1.11 2.8 2.55-4.34 1.08L37.24 59c.67-.59 2.54-2.17 4.11-2.27zM25 65c2.12-3.22 3.7-3.62 6.72-3.66-.29 4.37-1.38 4.7-3.8 6.77zm17.92.26l-4.29 2.91L36 61a11.53 11.53 0 014.53 1.48c2.86 1.78 1.47 1.13 2.4 2.76zm-8.84-2.81a8.87 8.87 0 012 4c.42 4.89 1.16 2.56-3 3.32-1-1.49-2.66 2.85-1.07-4.6a3.63 3.63 0 012.08-2.74zm144.5-19.6c-22.8 5.64-13.4 37.89 7.81 32.47 20.93-5.35 13.48-37.74-7.81-32.47m5.52 9.89a5.29 5.29 0 01-2 3c-.57-.64-2.13-2.5-2.24-4-.39-5.51-1.11-2.69 3.24-3.36 1.03 1.52 2.55-2.89 1 4.36zM177.4 50c1.27 3 2.13 3.51 2.75 7-3.56-.56-4.1-1.38-7.06-2.82 1.32-3.35.91-2.94 4.31-4.18zm6.75 7c.58-3.16 1.58-4.13 2.7-7 4.3 2 6 5.32 5.94 11.19-3.73.26-5.23-.06-7.47-2.64l5.9-2.59c-3.91-1.36-2.16.54-7.07 1.04zm-9.35-.19c1.48.11 3.29 1.6 4 2.21a4.9 4.9 0 01-2.92 2c-7.18 1.65-3-.08-4.43-1 .86-4.21-2.51-3.69 3.35-3.25zM173.3 65c1.71-2.85 3.39-3.36 6.72-3.89-.46 4.91-2.39 3.09-.73 7.1l2.8-5.78c2.28 2.13 1.63 3 3 5.55 1.66-3.78-.36-2.07-.84-6.76 2 .18 2.12 0 4.35 1.25 2.48 1.44 1.6 1.26 2.38 2.53-5.53 6.35-12.22 5.61-17.68 0z"/></g></g></symbol><symbol viewBox="0 0 240.11 96.3" id="suv" xmlns="http://www.w3.org/2000/svg"><defs><style>.jcls-1{fill:#d7b46a;fill-rule:evenodd}</style></defs><g id="jСлой_2" data-name="Слой 2"><g id="jСлой_1-2" data-name="Слой 1"><path class="jcls-1" d="M1.41 75.49l10.21.9c1.65-4.09 2.88-23.85 24-24.43 15.22-.42 23.62 10.13 24.95 24.32h107.72c.79-13.56 10-24 23.34-24.32 15.31-.42 22.58 9.84 25.15 23.1 14.05-.58 22.79.88 23.31-14.78.25-7.49-1.88-5.65-3.55-9.73-2.39-5.84 1.24-15.47-2.71-23.43-2.42-4.89-7.24-11-10.27-15.73-3.46-5.39-6.66-9.24-14.92-9.91-26.89-2.19-97.47-3.68-118.15 8.66-15.4 9.19-20.31 14.63-35.22 16.6-29.62 3.92-48.35.64-51.64 26.62a31.39 31.39 0 01-.77 5.33c-.47 1.43-5.14 6.8-1.45 16.8m68.21-48.26c1.82-1.85 21.47-13.54 24.94-15 9-3.74 22.64-5.57 33.59-6.28l-6.5 20.34zM135 5.62c14.11-2.6 41.67-.83 57.17-.52l-6 19.84L131.55 26zm62 0c6.72-.58 14.08 0 17.81 3.47a25.38 25.38 0 014.4 6.67c5.32 12.24-10.35 8.74-26.1 9zM182.25 31.3c-2.58 3.36-10.56 1.79-12.47 1 .22-4.3 10.34-3.91 12.47-1zm-76 2c.53-3.08 10-1.88 12.54-1.36-.9 4-.11 3.16-6.18 3.17-4.35.01-4.07.97-6.32-1.81zM8 51.05c2.24-10.38 10.22-15.26 22.52-14.59C27.79 41.25 16.28 49.2 8 51.05zM233.71 41l-.16 9.9c-6.14.08-7.72.56-12-1.45-2.5-9.45 3.74-8.66 12.16-8.45zM8.05 70.32L1.68 71.9v-6.93c4-.1 2.92-.79 6.11 1.33z"/><path class="jcls-1" d="M187.25 56.66C161.41 64 172.3 102.08 197.79 95.5A20.08 20.08 0 00211.92 71c-2.33-9.13-12.5-17.81-24.67-14.38m5.39 15.53c-2.53-2-3-5.4-3.27-8.92l6.25.21c-.3 3.23-1.05 6.35-2.98 8.75zm-7-6.83c2.49 1.92 3.25 3.88 4.57 7.52-3.84.87-6.53-1.18-8.71-3.81zm15.77 5.72c-1.14.9-4.89 3.34-5.95 2.27-1.64-1.65 2-6.23 3.17-8.54l4.54 4.49zm-21.65 2c5.32.26 7.07.78 8.77 3.24-2.56 2.13-5.42 2.71-8.78 2.91zm16.62 3.24c1.72-2.31 4.17-3.58 8.84-2.73l-.22 5.3a11.17 11.17 0 01-8.62-2.55zm-10.74 10.53a26.31 26.31 0 00-4.11-3.07c3.21-6.25 12.71-7.73 5.89 1.31zm9.62-7.81l3.92.73a23.9 23.9 0 014.17 2.68C202 85.59 202 85.7 198.68 87a36.77 36.77 0 01-2.19-3.55c-1.8-3.26-1.19-4.31-1.23-4.45zm-2.62 1l3.18 8.62-6.56.25a27.38 27.38 0 01.92-5c1.11-3.69 1.58-3.16 2.46-3.87zM31.21 56.66c-25.68 7-15.35 45.75 10.46 38.81 25.25-6.79 15-45.78-10.46-38.81m2 6.56l6.26.36a20.83 20.83 0 01-1.05 5.35c-1.72 4.71-.38 2.23-3.16 3.39zm-3.62 2.14c2.56 2.4 3.36 4.3 4.43 8.41A13.59 13.59 0 0128.89 72l-3.32-2.7c1.58-2.88 1.15-2.54 4.07-3.94zm10.2 8.06c-1.63-2.49-.25-2.72 2.41-8.32 3.12 1.39 2 .67 4.83 4.2-1.74 1.94-5.64 4.45-7.19 4.12zM23.62 73c3.83.39 7 .86 8.75 3.34-2.39 1.94-5.61 2.63-8.76 3zm16.62 3.3c2-2.59 4.81-2.9 8.89-3.45l-.22 6.66c-1.68-.41-3.08-.54-5.11-1.21zm-6.68 2.12c0 6.77-3.77 3.47-.15 9.12.39-3.41.47-5.57 3.23-7.48 1.85 2.68 3 5.51 2.47 8.62-6.86.68-11.29-2-13.72-6.67zm13.66 4c-1.66 3.27-1.29 2.94-4.59 4.56C41 84.64 39 82 39.07 78.71c3.1-.03 5.74 1.95 8.15 3.74z"/></g></g></symbol><symbol viewBox="0 0 27.97 27.97" id="tel" xmlns="http://www.w3.org/2000/svg"><defs><clipPath id="ka" transform="translate(-.03 -.03)"><path d="M0 0h28.04v28.04H0z"/></clipPath></defs><g clip-path="url(#ka)" data-name="Слой 2"><path d="M-.03 3.29A3.29 3.29 0 013.28-.03H7.7a3.28 3.28 0 013.27 2.93 15.51 15.51 0 00.6 2.88 3.32 3.32 0 01-.81 3.29l-1.79 1.79a20.61 20.61 0 008.14 8.11l1.79-1.79a3.29 3.29 0 013.29-.81 15.58 15.58 0 002.87.6 3.28 3.28 0 012.91 3.3v4.41a3.28 3.28 0 01-1.07 2.43 3.33 3.33 0 01-2.53.86 26.59 26.59 0 01-9.08-2.5 26.86 26.86 0 01-7.49-5.3 26.86 26.86 0 01-5.29-7.49A26.58 26.58 0 01-.03 3.59v-.3z"/></g></symbol><symbol viewBox="0 0 16 16" id="telegram" xmlns="http://www.w3.org/2000/svg"><path d="M14.629 3.698l-2.012 9.618c-.152.679-.548.848-1.11.528l-3.066-2.29-1.48 1.442c-.163.166-.3.305-.616.305l.22-3.165 5.683-5.204c.247-.223-.054-.347-.384-.123L4.839 9.29l-3.024-.959c-.658-.208-.67-.667.137-.986L13.78 2.727c.548-.208 1.027.124.849.971z"/></symbol><symbol viewBox="0 0 262.74 149.53" id="truck" xmlns="http://www.w3.org/2000/svg"><defs><style>.mcls-1{fill:#d7b46a;fill-rule:evenodd}</style></defs><g id="mСлой_2" data-name="Слой 2"><g id="mСлой_1-2" data-name="Слой 1"><path class="mcls-1" d="M76.3 33.17l41.57-.08.21 44.45C145 79 221 78 251.58 77.78l5.45-.09.07-58.55c0-13.4 5.76-4.41 5.63-19H126.58c-22 0-14.42-2.27-39.38 15.66-6.07 4.36-10.77 7.37-10.9 17.42m177-18c-2.36 2.21-5.59 1.36-9.17 1.36H92.36c1.11-1.27 1.27-2.47 4.43-3.36l152.84-.32c4.94-.12 2.94 0 3.62 2.24zm-135.63 10c-1.2 2.77 1.92 1.62-3.92 2.15-5.46.5-30.09.23-32.34-1.15 1.5-3.46 1.57-3 6.12-3.12l24.1.09c6.78-.08 5.25.24 5.99 1.95z"/><path class="mcls-1" d="M174.54 122c1.84-6 5-14.7 12.34-14.87-2.91 5.15-7.3 6.27-9.73 15H185c3.28-7.31 9.22-13.6 20.58-13.59 12.45 0 15.86 6.29 21 13.48l7.23.1c-2.2-8.49-6.32-10-9.47-14.95 7 .29 10.62 8.65 12.3 14.9l11.94-.13c10.71-13 8.85-24 8.58-40.72l-143.08.07-.21-44.61c-17.5-.32-35.69-2.66-47 5.76-3 2.2-3.56 3.3-6.31 5.68l-13 11a80.11 80.11 0 01-6.41 5.6c-3 2.45-2.9 3.49-6.66 5.32C19.67 77.25 7.77 77 5.37 88.83c-1.52 7.5-1.5 2.87-3.93 8.17-1.76 3.85-1.76 18.35-.78 23 1.41 6.65 5.42 9.73 12.74 9.8 2.9-8.2 1.43-8.77 7.25-14.58 11.07-11.06 33-10.5 38.47 14.56l54.61.08.19-7.52c16.94-1 42.3 0 60.62-.3m-113-68.95c16.54-14.21 13.78-13.14 48.1-12.22l-.33 28.93-66.4-.05zm32.74 23.05c1.48-1.11-1.48-1.25 3.26-2.06.58-.09 11.38-1 11.54 2.14s-12.28 4.18-14.8-.08zm14.79 7.68c-2.07 2.83-2.49 2-7.45 2h-27c-8.48 0-31.07 1.64-34-2.29zM8.4 92.56c.43-7.48 1.07-11.24 9.16-11.12C26 81.57 27 83.91 25 91.59c-4.52 1.41-11.06.98-16.6.97zm120.18 5.34c-9 0-13.36 1.52-14.52-1.76 2.78-1.37 127.2-1.66 131.69 0-1.58 2.65 1.24 1-3.15 1.67zM249.27 88c3.54-1.12 1-1.45 5.25-.43l.12 16.88c-5-.13-6.24-1.16-6.48-6.23-.16-4-.04-7.22 1.11-10.22z"/><path class="mcls-1" d="M18 135.14c4.58 22.82 41.46 17.24 36.62-7.91-4.43-23.06-41.79-17.92-36.62 7.91m20.22-10.5c-2 4.61.25 1.32-3 2.78l-1.88-8.3h5.77a20.91 20.91 0 01-.86 5.52zm-12.1 1c1.52-3.27 1.64-3.3 4.76-4.82 4.19 9.18 5.35 9.27-4.73 4.85zm12.88 3c-.34-3.64 1.2-5.52 3.55-7.61 3 1.44 2.52.92 3.87 4.22-2.42 1.64-4.42 3.21-7.42 3.44zM24.57 128c3.41.5 5.89.84 8.08 3.18l-4.06 2.13a14.59 14.59 0 01-4.07.88zM40 131.14c2-2.4 5-3.16 8.17-2.65l-.17 5.14a10.29 10.29 0 01-8-2.49zm-13.61 6c2.64-2.56 3.72-3 7.48-4.08-.51 6.05-2 6.68-4.75 8.17zm19.78 0c-1.7 3.29-1 2.3-3.59 3.83a10 10 0 01-3.82-7.63c3.75.41 4.8 1.21 7.41 3.8zm-12.52 5.69c-.12-3 .42-6.34 2.83-8.26 2 2.32 2.49 4.6 2.33 8.39zm153.44-8.69c3.27 22.07 40.59 19.53 37-6-3.24-22.86-40.72-19.23-37 6m18.49-6.74c-.77-.89-.52-.17-1.4-1.84l-1.57-6.41 5.92.17a14.92 14.92 0 01-1 4.74zm-5.48-6.52c1.45 2.81 3.38 5.05 2.64 7.48-2.05.44-4.86-1.56-7.35-2.8 2.02-4.77.96-3.09 4.71-4.68zm8.31 7.49c-.74-2.44 1.17-4.52 2.61-7.47 5.55 2.33 3.62 2.11 4.7 4.62-2.48 1.29-5.22 3.29-7.31 2.85zm-7.87 4.69l-6.95.56.18-5.43c3.23.12 4.73 1.07 8.15 1.69zm10.07 0l-1.1-2.19a3.09 3.09 0 00-.29-1c3.42-.62 4.93-1.56 8.28-1.67l-.28 5.68c-2.61-.01-3.35-.68-6.61-.88zm-10.07 0l3 1.2-3.54 6.93c-3.91-1.42-3.19-.83-4.58-4.64 2.9-1.55 3.1-1.05 5.12-3.49zm10.07 0l.93 1.12c.14.12.39.35.56.47l3.59 1.93c-1.44 3.87-.69 3.18-4.62 4.65l-3.33-7.37zm-5 1.65c.17.21.46.23.53.63a10.86 10.86 0 012.18 7.4l-5.42.16c-.11-2.7-.32-1.33.4-3.88a17.48 17.48 0 01.86-2.36c1.78-3.51-.16-.09 1.42-1.97zm-131.03-1.13c-5.1 0-9.76-1.64-11.22 2.56 3.58 2.24 48.74 2.29 52.32 0-.91-2.91-.11-2.61-5-2.67z"/></g></g></symbol><symbol viewBox="0 0 241.7 77.72" id="universal" xmlns="http://www.w3.org/2000/svg"><defs><style>.ncls-1{fill:#090217;fill-rule:evenodd}</style></defs><g id="nСлой_2" data-name="Слой 2"><g id="nСлой_1-2" data-name="Слой 1"><path class="ncls-1" d="M13.59 66.17c-4.3-35.92 46.27-34.35 40.87 0l111.14-.07c-3.71-35.73 45.41-34.51 41.1-.23 7.72-1 15.34-2.25 23.07-3.27 11.45-1.53 11.9-2.22 11.86-13.83 0-11.86 1.05-11.94-4.13-21.55a53.6 53.6 0 00-11.41-14.61C214.38 2.22 202.1.46 183.6.37c-42.07-.22-68.66-2.88-94.81 10.18C61.75 24.05 76.33 25.13 53 26.87c-13.57 1-35.46.24-43.66 8.26-3.24 3.21-2.42 4.27-4.7 8.24C2.22 47.58.57 45.76.25 51.69c-.8 14.8-.44 14.1 13.34 14.48m59.86-39.92c1.56-2.27 0-.33 1.76-2.07.23-.23.94-.86 1.18-1.06 14.2-11.81 33.17-18.57 53.47-19.37L124.12 25zM137.6 3.69l41.51-.12L174 23.68l-40.92.93zm44.7-.25c14-.54 38.44 3.36 37.7 17.29-5.63 3.95-33.47 2.46-42.64 2.81zm-18.84 26.29c2.22-1.93 3.23-1.48 6.53-1.52 5.53-.07 4.61-.72 6 2.95-2.24.93-3.88.92-7.06.86-4.93-.08-4.36.68-5.47-2.29zM117 33.46c-5.26 0-4.85.61-6-3.12 1.57-1 9.67-1.5 12.62.65-1.57 3.22-2.11 2.44-6.62 2.47zm-109.22 12C9.26 34.82 20.87 32.5 30 32.71 26.39 37.8 16.22 43.63 7.78 45.46zm231.92-7.52l-.29 8.48-8.69-.59c-1.58-3.78-1.81-3.44-.27-7.72zM2.07 53.73c3.48-.07 6.44-.56 6.54 3S5.45 60 2 60z"/><path class="ncls-1" d="M30.51 44.67c-22.84 5.7-13.31 37.71 7.76 32.42s13.49-37.71-7.76-32.42M36 54.53a4.12 4.12 0 01-2 2.92c-.75-.86-2.06-2.52-2.17-4-.43-5.45-1.17-2.67 3.17-3.36 1 1.55 2.56-2.89 1 4.44zm-12.62 8.9c.09-6.08 1.42-8.91 4.14-11.71 3 1.55 3.68 1.68 4.52 7.09-4.85-.83-3.55-2.58-7.17-1 2.29 1.07 3.6 1 5.85 3-1 1-.24 1.05-2.93 1.91a23.35 23.35 0 01-4.37.71zM40 69.66c-1.44-.93-.49.13-1.72-1.28-1.63-1.87-1.8-3.31-2-5.38 4.67.24 2.75 2.44 6.68.71-2.43-1.32-3.54-.94-5.66-3.41l5.81-2.59c-3.91-1.37-2 .64-7 .92.63-3.93 1.28-5 3.85-6.69 5.82 5.36 6.37 12.64.04 17.72zm-7.64-6.74l-3 7c-2.83-1.49-3-1.57-4.25-4.35zM34 64.15a6.08 6.08 0 012.24 3.75c.46 6.55 1 2-2.24 3.62-1.79-1-3.51 2.55-1.88-4.36A6 6 0 0134 64.15zm148.53-19.44c-23.15 6.11-12.73 38.51 8.54 32.2a16.78 16.78 0 0011.27-20.62 16 16 0 00-19.81-11.58M186 57.44c-1.87-2.4-2-4.2-2.44-7.4l5.66.51c-1.22 3.45-.71 4.88-3.22 6.89zm-8.84-2.83c2.3-2.92.72-1.72 4.21-2.93l2.85 7.23c-3.89-.91-5.39-1.33-7.09-4.3zm11.09 3.92a8.22 8.22 0 011.34-4.15c1.42-2.44 1.15-1.58 2.64-2.65l3.06 4.43zm-6.86 11.38c-1.38-.57-3.24.16-5.25-6.18-1.14-3.61-.89-3.9.86-7 2.24 3.56 2.29 1 5.88 4l-3.66 3.37c.17 0 2.83-.84 3.08-.87 2-.24.71-.09 2 .54zm15.52-11.47v4.69c-8.29-.15-6.68-1.79-7.36-2.4 2.99-2.39 3.67-2.27 7.33-2.29zM192 69.69c-2.59-1.9-3.42-3.38-3.64-6.6 4.6-.05 5.42 1.74 6.88 3.8zm-8.05 1.75a10.8 10.8 0 011.9-7.42c2.59 2.07 2.66 3.51 2.46 7.52z"/></g></g></symbol><symbol viewBox="0 0 16 16" id="viber" xmlns="http://www.w3.org/2000/svg"><path d="M8 1.335c-1.071.013-3.374.19-4.662 1.37-.958.948-1.292 2.35-1.331 4.084-.033 1.728-.072 4.973 3.058 5.856v1.346s-.02.538.337.648c.438.14.688-.275 1.105-.72l.778-.879c2.142.178 3.782-.232 3.97-.293.435-.139 2.883-.451 3.283-3.696.41-3.351-.2-5.463-1.301-6.418h-.007c-.332-.306-1.668-1.279-4.652-1.29 0 0-.222-.014-.578-.008zm.037.942a7.02 7.02 0 01.488.011c2.527.007 3.732.767 4.017 1.023.927.794 1.405 2.697 1.055 5.495-.332 2.713-2.317 2.885-2.685 3.002-.156.05-1.6.406-3.42.289 0 0-1.356 1.634-1.78 2.055-.067.074-.146.095-.196.085-.071-.018-.093-.107-.089-.229l.013-2.233c-2.655-.733-2.498-3.5-2.47-4.946.033-1.446.304-2.628 1.113-3.43 1.088-.982 3.043-1.115 3.953-1.122zm.2 1.446a.166.166 0 100 .332 3.136 3.136 0 012.242.883c.606.588.9 1.378.912 2.411 0 .092.074.167.167.167V7.51a.167.167 0 00.168-.165 3.588 3.588 0 00-1.009-2.646c-.66-.645-1.496-.977-2.48-.977zm-2.198.382a.523.523 0 00-.342.067H5.69a2.61 2.61 0 00-.637.523 1.003 1.003 0 00-.256.525.71.71 0 00.026.302l.01.006c.172.504.396.988.67 1.444a8.48 8.48 0 001.29 1.762l.015.022.024.017.015.018.017.015c.532.505 1.127.94 1.769 1.295.734.4 1.18.588 1.447.667v.004c.078.024.15.034.221.034.228-.016.444-.109.613-.262a2.53 2.53 0 00.517-.638v-.004c.128-.241.085-.469-.1-.623-.37-.323-.77-.61-1.195-.857-.285-.155-.574-.061-.69.095l-.25.315c-.129.156-.361.134-.361.134l-.007.004C7.093 8.527 6.63 6.772 6.63 6.772s-.022-.239.139-.36l.312-.252c.15-.122.254-.41.094-.695a7.498 7.498 0 00-.856-1.194.475.475 0 00-.28-.167zm2.486.495c-.221 0-.221.334.003.334A2.098 2.098 0 0110 5.572 1.94 1.94 0 0110.5 7a.168.168 0 00.167.165l.007.009a.169.169 0 00.167-.167c.015-.662-.191-1.218-.595-1.663C9.84 4.9 9.273 4.65 8.549 4.6h-.024zm.274.898c-.228-.006-.236.335-.01.341.55.029.816.306.851.877a.166.166 0 00.165.163h.007a.168.168 0 00.16-.178c-.039-.744-.445-1.164-1.166-1.202H8.8z"/></symbol><symbol viewBox="0 0 24 24" id="vk" xmlns="http://www.w3.org/2000/svg"><path d="M21.579 6.855c.14-.465 0-.806-.662-.806h-2.193c-.558 0-.813.295-.953.619 0 0-1.115 2.719-2.695 4.482-.51.513-.743.675-1.021.675-.139 0-.341-.162-.341-.627V6.855c0-.558-.161-.806-.626-.806H9.642c-.348 0-.558.258-.558.504 0 .528.79.65.871 2.138v3.228c0 .707-.127.836-.407.836-.743 0-2.551-2.73-3.624-5.853-.209-.607-.42-.852-.98-.852H2.752c-.627 0-.752.295-.752.619 0 .582.743 3.462 3.461 7.27 1.812 2.602 4.363 4.012 6.687 4.012 1.393 0 1.565-.313 1.565-.853v-1.966c0-.626.133-.752.574-.752.324 0 .882.164 2.183 1.417 1.486 1.486 1.732 2.153 2.567 2.153h2.192c.626 0 .939-.313.759-.931-.197-.615-.907-1.51-1.849-2.57-.512-.603-1.277-1.253-1.51-1.578-.325-.42-.231-.604 0-.976.001 0 2.672-3.761 2.95-5.04z"/></symbol><symbol viewBox="0 0 16 16" id="whatsapp" xmlns="http://www.w3.org/2000/svg"><path fill-rule="evenodd" clip-rule="evenodd" d="M12.269 3.755A5.947 5.947 0 008.035 2 5.994 5.994 0 002.05 7.985a5.98 5.98 0 00.799 2.992L2 14.077l3.173-.832c.877.477 1.86.728 2.86.728h.002a5.993 5.993 0 005.533-8.276 5.953 5.953 0 00-1.3-1.942zm-4.234 9.208h-.002c-.89 0-1.765-.24-2.532-.694l-.181-.108-1.883.494.502-1.835-.118-.188a4.965 4.965 0 01-.76-2.647 4.982 4.982 0 016.88-4.597c.604.25 1.152.618 1.613 1.081a4.946 4.946 0 011.455 3.52 4.982 4.982 0 01-4.974 4.974zm2.729-3.726c-.15-.075-.885-.436-1.022-.486-.137-.05-.236-.075-.336.074-.1.15-.387.486-.474.586-.087.1-.175.112-.324.038-.15-.075-.631-.233-1.203-.742a4.505 4.505 0 01-.832-1.036c-.087-.15-.009-.231.066-.306.068-.066.15-.174.224-.262.075-.087.1-.149.15-.249.05-.1.025-.187-.013-.262-.037-.075-.337-.811-.461-1.11-.121-.29-.244-.252-.336-.256a6.418 6.418 0 00-.286-.005.55.55 0 00-.4.186c-.137.15-.523.512-.523 1.248s.536 1.447.61 1.547c.075.1 1.055 1.61 2.555 2.258.358.154.636.246.853.315.358.114.684.098.942.06.287-.043.885-.362 1.01-.711.124-.35.124-.649.087-.711-.038-.063-.138-.101-.287-.176z"/></symbol></svg>