<svg xmlns="http://www.w3.org/2000/svg" viewBox="0 0 302.22 129.12"><defs><style>.cls-1{fill:#0e0206;}.cls-1,.cls-2,.cls-3{fill-rule:evenodd;}.cls-2{fill:#11090a;}.cls-3{fill:#100708;}</style></defs><title>bus</title><g id="Слой_2" data-name="Слой 2"><g id="Слой_1-2" data-name="Слой 1"><path class="cls-1" d="M88.64,118C88,91,89,62.56,88.54,35.5c-.18-11-.2-8,1.93-9.35L90.4,117.9l130.35.1c-9.61-43.4,54.56-43.91,45.63-.4,6.2.1,19.88-2.19,26.5-3.4,12.76-2.33,9.39-12.52,7.43-15l-1.79-1.68c3.19-26.47,5-94.3-23.39-96.92C261.7-.65,174.56.44,153.15.43,87.1.39,84.62-3.06,33.6,35c-3,2.22-5.42,4.32-8.39,6.65s-4.93,4.66-7.91,7.07C4.38,59.12,5.53,77.21,5.52,97.52c-.44,1.88-7.62,3-4.91,15.69.83,3.89.11,1.9,2.19,3.75,4.67,2.15,25.53,1.37,32.17.72-8.83-44.26,55.64-42.32,45.61.26ZM74.33,12.72c.18-.14,2.16-1.41,2.47-1.56a12.46,12.46,0,0,1,6.35-1.25h191c6.79,0,7.19-1.31,9.22,4.88L71.93,14.66Zm209.54,14.2c2.12,2.86,5.93,23.44,2.79,28-2.39,3.49-25.06,1.92-30.51,1.92h-128c-19,0-22.08-2-33.07-30.34ZM25.57,56.43c2.07-5.6,17.48-16.08,22.91-20.57,13.43-11.1,12.84-9.75,34.59-9.29,1,28.8,2.08,30.37-13.92,30.26C57.3,56.74,36.25,58.08,25.57,56.43ZM71,62.52c3.17-1.67,8.76-1.39,11.61-.39.47,3.44-.86,3-5.41,3C72.23,65.16,72,66,71,62.52Zm219.57,10c0-6,1.42-7.3,7.67-7.28-.14,6.81.17,20.54-2.05,26.33C288.76,91.06,290.54,83.54,290.53,72.52ZM8.75,68.91a14.2,14.2,0,0,1,9.69.27c4.91,22.32-3.4,20-10.33,19.93Z"/><path class="cls-2" d="M77.3,114.52c3.5-12.34-5.07-22.64-14.17-25-11.51-3-22,4.36-24.64,13.36C30.68,129.55,70.08,140,77.3,114.52M52.24,98.29c1.85-2.75,5.95-2.18,9-1.81-.93,3.72-1,5.34-3.13,8.62-2.76-2.13-2.86-4.1-3.37-7.66C53.1,100.33,54.81,99.87,52.24,98.29Zm8.09,8.08C60.59,103,62.39,101,63.58,98c4.06,2,4,3.77,6.14,6.39-1.1.71-.39,1.08-1.8.65-3.55-1.11-.47.28-.6-.93a.76.76,0,0,0-.17-.4C64.65,105.62,63.84,106.22,60.33,106.37Zm-11.29,7c-.79.32-2.42.85-3.08,1.22L45.54,106c1.33-4.45,2.28-6.28,6.7-7.68,1.38,3.77,2.33,3.76,3.18,8.43-5.19-1.25-3.57-2.25-8.61-1.23,3.41,1.66,5.66.82,7.08,4.26Zm12.86-3.9c1.16-2-.91-1.3,3.57-2.74a36,36,0,0,1,5.29-1l-.6,6.79Zm-1.51,2.19a11.88,11.88,0,0,1,8.24,4c-2.16,3.1-1.43,2-4.21,4.31-1.85-1.86-1.07-1-2.43-3.31C59.92,113.07,61,114.93,60.39,111.71ZM49,113.42c3.35-1,2.58-1.44,6.3-2.06-.57,3.83-.91,4.56-2.94,7.16.1.08.32,0,.34.15.62,3.81.38.1.65.44.08.1.17-.53.73,1.38-4.37-.88-5.33-2.12-7.21-5.63Zm9.11-.37,3.25,8.47-6.85.42C55.16,118,55.24,115.22,58.15,113.05Z"/><path class="cls-3" d="M223.41,111.52c2.05,24.25,42,22.69,40.24-4A20.39,20.39,0,0,0,241.11,89c-10.81,1.16-18.72,10.44-17.7,22.57m19.74-6.44a6.47,6.47,0,0,1-1.31-2.21,18,18,0,0,1-.8-2.35,24.94,24.94,0,0,1-.93-4.15l6.63-.1C246.15,100.11,246,102.78,243.15,105.08Zm-10.92.43c-.67-2.89,1.65-5.61,5.43-7.47,1.13,2.81,3,5,3.37,8.34-3.25-.19-4.61-1.17-6.88-2.61-.07.1-.12.32-.15.35Zm20,8-4.86-3.67c1.4-3.57,3.44-2.51,7-4.28-4.94-1.12-3.39-.08-8.57,1.25.77-4,2-6.27,4.3-8.5,1.36.71,1.79.25,3.48,2.75,4.54,6.71,1.82,10.57,1.72,13.57C254.59,114.2,253.09,113.78,252.24,113.47Zm-19.17,1c-2-1-2.83-4.55-2.39-6.7.75-3.68.59-1.34,1.55-2.31l7.14,3c-1.06,2.14,1.84.75-2.71,2.6-1.49.6-2,.42-3.83.67C234.49,113.75,234.24,112.18,233.07,114.52Zm0,0c3.48-1.47,3.76-2.64,7.89-2.8-.33,5.42-2.43,2.3-.81,7.81,1.4-2.88.68-5.19,4.09-6.68l2.54,9c-4.45.15-4.53.46-8.64-1.52-3.42-1.65-5.62-2.64-5.07-5.85m19.17-1,2.16,1.43c-1.35,3.19-.32,1.95-4.25,4.9a13.34,13.34,0,0,1-4.17-8.41C249.82,112,248.77,112.43,252.24,113.47Z"/></g></g></svg>