<svg xmlns="http://www.w3.org/2000/svg" viewBox="0 0 218.54 75.61"><defs><style>.cls-1{fill:#090217;fill-rule:evenodd;}</style></defs><title>hatchback</title><g id="Слой_2" data-name="Слой 2"><g id="Слой_1-2" data-name="Слой 1"><path class="cls-1" d="M.94,62.89C4.48,64.18,8.92,64,13.43,64c-4.63-35.56,46.36-33.6,40.94-.34L161.71,64c-4.57-35.24,45.52-34.69,41-.25,6.87-1.06,12.68-4,14.6-8.94,4-10.27-3.06-14.79-4.35-17A133.08,133.08,0,0,0,203.83,24c-4.09-5.4-1-2.32-7.05-5-3.26-1.43-4.57-3.51-6.18-5.37,3.05-2.87,2.05-.5,4.07-4.28-11.21-1.11-15-4.8-26.44-6.77A196.49,196.49,0,0,0,137.15,0C79.29-.69,76,22.91,60.46,24.26c-9.92.85-20.27,1.54-30.31,2.35-11.24.9-18.27,2.21-23.31,9.73-1.54,2.29-1.41,3.48-2.6,5.34C1.54,45.89,1.66,42,.4,46.83-.46,50.17.24,60.07.94,62.89M74.59,22.62C77,19.86,81.85,17.2,85,15.46,98.93,7.71,112.84,3,130.07,4.79l-5.91,17.8L73.44,24.15ZM136.78,5.13c6.12-1.5,40.63,1.49,43.76,7.26,3,9.57-10.34,8.67-18.38,9-9.43.33-18.85.68-28.37.9ZM200,22.23c2.3.7,5.6,6.16,6.76,8.4-4.45.55-9.32.44-12.76-.87C192.84,25.63,193.41,20.2,200,22.23Zm-41.91,7.6c-3.61-1.07-.79.69-2.33-2.19,2-1.37-2-.48,3.31-1.4,3.62-.63,6.69-.41,9,1.4C166.7,30.66,161.83,30.93,158.13,29.83Zm-41,1.53c-5.58,0-5,.7-6.13-3.19,2.68-1.29,9.57-1,12.3.47C122.32,32.38,122.19,31.35,117.15,31.36ZM7.54,43.27c1.82-9.19,11.31-13.49,22.35-12.45C24.89,35.77,16.9,41.83,7.54,43.27ZM1.81,58l0-6.52L8,52.44C8.74,58.24,7,57.86,1.81,58Z"/><path class="cls-1" d="M27.92,43.13c-20.33,8.38-9.19,38,11.32,31.57C60.67,68,49,34.46,27.92,43.13m6.23,12.29c-.4-.33-1.59-.32-2.15-2.92-1.58-7.23.16-3.09,1.15-4.47C33.19,48,41.17,46.36,34.15,55.42Zm-6-5.55c2.73,1.88,3.41,3.53,3.57,7l-7.16-3.15Zm7.75,7c1.06-5.87,2-5.9,4.48-7.13L43,52.46C41.3,55.61,40,56,35.9,56.83Zm-12.59-.49c3.65.11,5.46.5,7.4,2.36C28.41,60.89,27,61,23.2,61.11Zm17,4.33c-3.11-1.2-2-1-3-2,1.24-1.74,4.57-2.15,7.46-2.51l-.57,5.66C43,61.39,41.8,61.26,40.26,60.67Zm-15.18,4c2.06-3.09,3.67-3.59,6.69-3.62-.13,1.89.13,1.69-1.17,4a5,5,0,0,1-1.26,1.72Zm17.81.08-4.22,3.15-2.55-7.2a12.3,12.3,0,0,1,4.44,1.53C43.23,63.81,42.05,63.35,42.89,64.72Zm-8.74-2.61c1.88,2.23,2.19,4.28,2.15,7.27l-4.53.13C31.71,65.69,31.74,64.07,34.15,62.11Z"/><path class="cls-1" d="M178.65,42.58c-22.77,5.74-13.51,37.81,7.88,32.42,20.76-5.24,13.45-37.8-7.88-32.42m3.5,5.41c.58.29,5.38-1.27,1.43,5.77-.79,1.41-.69.88-1.43,1.65a5.58,5.58,0,0,1-2-3.15C178.66,46.14,179.5,49.09,182.15,48Zm2.19,9c.2-2.39.08-2.49.95-4.21,1.33-2.62,1.55-2.12,2.86-2.89l3.42,3.86Zm-11.29-1.33,6,2.52-3,3.07c-.18.18-.47.47-.69.72,4.11-1.2,2.59-1.53,4.83-.33L177.4,67.8c-6.62-3.16-8.65-14.83,0-18.14,1.2,2.93,2.12,3.62,2.81,7.08C177,56.25,174.63,54,173.05,55.66Zm12.51,3c2.2-2,3.86-2.33,7.29-2.09l.08,4.25C189.13,61.14,187.61,60.86,185.56,58.64Zm-1.19,2.21c3.31.38,4.89,1,6.71,3.79l-4.17,2.17C184.13,63.91,185,63.22,184.37,60.85Zm-2.22,1.27c2.18,2.12,2.36,3.63,2.28,7.32h-4.51C179.83,65.89,179.93,64.45,182.15,62.12Z"/></g></g></svg>