<svg xmlns="http://www.w3.org/2000/svg" viewBox="0 0 231.39 75.94"><defs><style>.cls-1{fill:#d7b46a;fill-rule:evenodd;}</style></defs><title>sedan</title><g id="Слой_2" data-name="Слой 2"><g id="Слой_1-2" data-name="Слой 1"><path class="cls-1" d="M.9,63.2C4.27,64.43,9,64.32,13.34,64.35,9,28.41,59.46,30.47,54.32,64l107.35.3c-4.75-34.42,44.71-35.44,41-.32,29.35-4,29.35-4.52,28.42-20.1-.44-7.29-2.34-3.77-3.38-8.26-.83-3.57.19-6.54-1.65-10.71-3.32-7.5-9.68-4.56-18-5.58-3.09-.38-12.51-6-16.46-7.89-27.83-13.07-75.36-16.18-102-3a126.14,126.14,0,0,0-15.15,8.85C68,21.67,67.89,24,57.79,24.74s-35.28,1.63-42.95,5C6.55,33.29,8.06,36.91,3.75,42.59.86,46.4.21,43.32,0,50.9c-.1,4.17,0,8.93.87,12.3M73.17,24.32C76.07,20,90.4,12.54,97,9.87a70.55,70.55,0,0,1,33.11-4.75l-6,17.78ZM137.09,5.17c8.43-.79,40.36,1.81,43.36,7.58,2.93,9.57-10.72,8.67-18.68,8.91-9.31.29-18.6.64-28.05.88Zm27,24.94c-4.4-.06-4.38.85-5.9-2.13,2.45-1.89,2-1.4,5.89-1.45,4.11,0,4.42.06,6.48,1.45C169.53,29.7,170.83,30.2,164.07,30.11Zm-50.64,1.38c-3-1.3-.73.43-1.36-2.51,3-1.67,9.08-1.68,12,0-.68,3.2,2,1.66-2.09,2.69ZM7.42,43.58C9.49,34.4,18.6,30,29.84,31.14a34.54,34.54,0,0,1-9.92,7.66A39.38,39.38,0,0,1,7.42,43.58ZM215.8,36.31c-2-8.39,1.37-8,9.36-8l.37,9.3ZM1.74,58.35l0-6.5L8,52.76C8.56,58.49,6.88,58.18,1.74,58.35Z"/><path class="cls-1" d="M27.45,43.9c-5.19,2.47-6.18,2.41-8.64,7.81A16.79,16.79,0,0,0,40.56,74.49c20-8.36,7-40.2-13.11-30.59m6.64,11.79c-.4-.33-1.58-.28-2.15-2.85-1.59-7.28.21-3.18,1.15-4.52C33.13,48.33,40.77,47.15,34.09,55.69Zm-6-5.52c2.76,1.95,3.44,3.51,3.57,7l-6.85-2.85C26.14,51.24,25.94,51.94,28.09,50.17ZM38.76,50c3.69,1.16,1.71-.21,4.17,2.8-1.66,3-3.13,3.51-7.34,4.2ZM23.24,56.71c4.71,0,4.5.16,7.32,2.27-2.83,2.54-3.42,2.35-7.37,2.37Zm18.11,0c5.29-.34,2.6-1.11,3.29,3.25-1.58,1.11,2.8,2.55-4.34,1.08L37.24,59C37.91,58.41,39.78,56.83,41.35,56.73ZM25,65c2.12-3.22,3.7-3.62,6.72-3.66-.29,4.37-1.38,4.7-3.8,6.77Zm17.92.26-4.29,2.91L36,61a11.53,11.53,0,0,1,4.53,1.48C43.39,64.26,42,63.61,42.93,65.24Zm-8.84-2.81a8.87,8.87,0,0,1,2,4c.42,4.89,1.16,2.56-3,3.32-1-1.49-2.66,2.85-1.07-4.6A3.63,3.63,0,0,1,34.09,62.43Z"/><path class="cls-1" d="M178.58,42.85c-22.8,5.64-13.4,37.89,7.81,32.47,20.93-5.35,13.48-37.74-7.81-32.47m5.52,9.89a5.29,5.29,0,0,1-2,3c-.57-.64-2.13-2.5-2.24-4-.39-5.51-1.11-2.69,3.24-3.36C184.13,49.9,185.65,45.49,184.1,52.74ZM177.4,50c1.27,3,2.13,3.51,2.75,7-3.56-.56-4.1-1.38-7.06-2.82C174.41,50.83,174,51.24,177.4,50Zm6.75,7c.58-3.16,1.58-4.13,2.7-7,4.3,2,6,5.32,5.94,11.19-3.73.26-5.23-.06-7.47-2.64l5.9-2.59C187.31,54.6,189.06,56.5,184.15,57Zm-9.35-.19c1.48.11,3.29,1.6,4,2.21a4.9,4.9,0,0,1-2.92,2c-7.18,1.65-3-.08-4.43-1C172.31,55.81,168.94,56.33,174.8,56.77ZM173.3,65c1.71-2.85,3.39-3.36,6.72-3.89-.46,4.91-2.39,3.09-.73,7.1l2.8-5.78c2.28,2.13,1.63,3,3,5.55,1.66-3.78-.36-2.07-.84-6.76,2,.18,2.12,0,4.35,1.25,2.48,1.44,1.6,1.26,2.38,2.53C185.45,71.35,178.76,70.61,173.3,65Z"/></g></g></svg>