<svg xmlns="http://www.w3.org/2000/svg" viewBox="0 0 240.11 96.3"><defs><style>.cls-1{fill:#d7b46a;fill-rule:evenodd;}</style></defs><title>suv</title><g id="Слой_2" data-name="Слой 2"><g id="Слой_1-2" data-name="Слой 1"><path class="cls-1" d="M1.41,75.49l10.21.9c1.65-4.09,2.88-23.85,24-24.43,15.22-.42,23.62,10.13,24.95,24.32H168.29c.79-13.56,10-24,23.34-24.32,15.31-.42,22.58,9.84,25.15,23.1,14.05-.58,22.79.88,23.31-14.78.25-7.49-1.88-5.65-3.55-9.73-2.39-5.84,1.24-15.47-2.71-23.43-2.42-4.89-7.24-11-10.27-15.73C220.1,6,216.9,2.15,208.64,1.48,181.75-.71,111.17-2.2,90.49,10.14c-15.4,9.19-20.31,14.63-35.22,16.6-29.62,3.92-48.35.64-51.64,26.62a31.39,31.39,0,0,1-.77,5.33c-.47,1.43-5.14,6.8-1.45,16.8M69.62,27.23c1.82-1.85,21.47-13.54,24.94-15,9-3.74,22.64-5.57,33.59-6.28l-6.5,20.34ZM135,5.62c14.11-2.6,41.67-.83,57.17-.52l-6,19.84L131.55,26Zm62,0c6.72-.58,14.08,0,17.81,3.47a25.38,25.38,0,0,1,4.4,6.67c5.32,12.24-10.35,8.74-26.1,9ZM182.25,31.3c-2.58,3.36-10.56,1.79-12.47,1C170,28,180.12,28.39,182.25,31.3Zm-76,2c.53-3.08,10-1.88,12.54-1.36-.9,4-.11,3.16-6.18,3.17C108.26,35.12,108.54,36.08,106.29,33.3ZM8,51.05c2.24-10.38,10.22-15.26,22.52-14.59C27.79,41.25,16.28,49.2,8,51.05ZM233.71,41l-.16,9.9c-6.14.08-7.72.56-12-1.45C219.05,40,225.29,40.79,233.71,41ZM8.05,70.32,1.68,71.9l0-6.93c4-.1,2.92-.79,6.11,1.33Z"/><path class="cls-1" d="M187.25,56.66C161.41,64,172.3,102.08,197.79,95.5A20.08,20.08,0,0,0,211.92,71c-2.33-9.13-12.5-17.81-24.67-14.38m5.39,15.53c-2.53-2-3-5.4-3.27-8.92l6.25.21C195.32,66.67,194.57,69.79,192.64,72.19Zm-7-6.83c2.49,1.92,3.25,3.88,4.57,7.52-3.84.87-6.53-1.18-8.71-3.81Zm15.77,5.72c-1.14.9-4.89,3.34-5.95,2.27-1.64-1.65,2-6.23,3.17-8.54l4.54,4.49Zm-21.65,2c5.32.26,7.07.78,8.77,3.24-2.56,2.13-5.42,2.71-8.78,2.91Zm16.62,3.24c1.72-2.31,4.17-3.58,8.84-2.73L205,78.85A11.17,11.17,0,0,1,196.38,76.3ZM185.64,86.81a26.31,26.31,0,0,0-4.11-3.07c3.21-6.25,12.71-7.73,5.89,1.31ZM195.26,79l3.92.73a23.9,23.9,0,0,1,4.17,2.68C202,85.59,202,85.7,198.68,87a36.77,36.77,0,0,1-2.19-3.55C194.69,80.19,195.3,79.14,195.26,79Zm-2.62,1,3.18,8.62-6.56.25a27.38,27.38,0,0,1,.92-5C191.29,80.18,191.76,80.71,192.64,80Z"/><path class="cls-1" d="M31.21,56.66c-25.68,7-15.35,45.75,10.46,38.81,25.25-6.79,15-45.78-10.46-38.81m2,6.56,6.26.36a20.83,20.83,0,0,1-1.05,5.35c-1.72,4.71-.38,2.23-3.16,3.39Zm-3.62,2.14c2.56,2.4,3.36,4.3,4.43,8.41A13.59,13.59,0,0,1,28.89,72L25.57,69.3C27.15,66.42,26.72,66.76,29.64,65.36Zm10.2,8.06c-1.63-2.49-.25-2.72,2.41-8.32,3.12,1.39,2,.67,4.83,4.2C45.29,71.24,41.39,73.75,39.84,73.42ZM23.62,73c3.83.39,7,.86,8.75,3.34-2.39,1.94-5.61,2.63-8.76,3ZM40.24,76.3c2-2.59,4.81-2.9,8.89-3.45l-.22,6.66c-1.68-.41-3.08-.54-5.11-1.21Zm-6.68,2.12c0,6.77-3.77,3.47-.15,9.12.39-3.41.47-5.57,3.23-7.48,1.85,2.68,3,5.51,2.47,8.62-6.86.68-11.29-2-13.72-6.67Zm13.66,4c-1.66,3.27-1.29,2.94-4.59,4.56C41,84.64,39,82,39.07,78.71,42.17,78.68,44.81,80.66,47.22,82.45Z"/></g></g></svg>