<svg xmlns="http://www.w3.org/2000/svg" xmlns:xlink="http://www.w3.org/1999/xlink" viewBox="0 0 27.97 27.97"><defs><style>.cls-1{fill:none;}.cls-2{clip-path:url(#clip-path);}.cls-3{fill:#003561;}</style><clipPath id="clip-path" transform="translate(-0.03 -0.03)"><rect class="cls-1" width="28.04" height="28.04"/></clipPath></defs><title>tel</title><g id="Слой_2" data-name="Слой 2"><g id="OBJECTS"><g class="cls-2"><path class="cls-3" d="M0,3.32A3.29,3.29,0,0,1,3.31,0H7.73A3.28,3.28,0,0,1,11,2.93a15.51,15.51,0,0,0,.6,2.88,3.32,3.32,0,0,1-.81,3.29L9,10.89A20.61,20.61,0,0,0,17.14,19l1.79-1.79a3.29,3.29,0,0,1,3.29-.81,15.58,15.58,0,0,0,2.87.6A3.28,3.28,0,0,1,28,20.3v4.41a3.28,3.28,0,0,1-1.07,2.43A3.33,3.33,0,0,1,24.4,28a26.59,26.59,0,0,1-9.08-2.5A26.86,26.86,0,0,1,7.83,20.2a26.86,26.86,0,0,1-5.29-7.49A26.58,26.58,0,0,1,0,3.62c0-.1,0-.2,0-.3Z" transform="translate(-0.03 -0.03)"/></g></g></g></svg>