<svg xmlns="http://www.w3.org/2000/svg" viewBox="0 0 262.74 149.53"><defs><style>.cls-1{fill:#d7b46a;fill-rule:evenodd;}</style></defs><title>truck</title><g id="Слой_2" data-name="Слой 2"><g id="Слой_1-2" data-name="Слой 1"><path class="cls-1" d="M76.3,33.17l41.57-.08.21,44.45C145,79,221,78,251.58,77.78l5.45-.09.07-58.55c0-13.4,5.76-4.41,5.63-19H126.58c-22,0-14.42-2.27-39.38,15.66-6.07,4.36-10.77,7.37-10.9,17.42m177-18c-2.36,2.21-5.59,1.36-9.17,1.36l-151.77,0c1.11-1.27,1.27-2.47,4.43-3.36l152.84-.32C254.57,12.78,252.57,12.9,253.25,15.14Zm-135.63,10c-1.2,2.77,1.92,1.62-3.92,2.15-5.46.5-30.09.23-32.34-1.15,1.5-3.46,1.57-3,6.12-3.12l24.1.09C118.41,23.11,116.88,23.43,117.62,25.14Z"/><path class="cls-1" d="M174.54,122c1.84-6,5-14.7,12.34-14.87-2.91,5.15-7.3,6.27-9.73,15H185c3.28-7.31,9.22-13.6,20.58-13.59,12.45,0,15.86,6.29,21,13.48l7.23.1c-2.2-8.49-6.32-10-9.47-14.95,7,.29,10.62,8.65,12.3,14.9l11.94-.13c10.71-13,8.85-24,8.58-40.72l-143.08.07-.21-44.61c-17.5-.32-35.69-2.66-47,5.76-3,2.2-3.56,3.3-6.31,5.68l-13,11a80.11,80.11,0,0,1-6.41,5.6c-3,2.45-2.9,3.49-6.66,5.32C19.67,77.25,7.77,77,5.37,88.83,3.85,96.33,3.87,91.7,1.44,97c-1.76,3.85-1.76,18.35-.78,23,1.41,6.65,5.42,9.73,12.74,9.8,2.9-8.2,1.43-8.77,7.25-14.58,11.07-11.06,33-10.5,38.47,14.56l54.61.08.19-7.52c16.94-1,42.3,0,60.62-.3m-113-68.95c16.54-14.21,13.78-13.14,48.1-12.22l-.33,28.93-66.4-.05ZM94.28,76.14c1.48-1.11-1.48-1.25,3.26-2.06.58-.09,11.38-1,11.54,2.14S96.8,80.4,94.28,76.14Zm14.79,7.68c-2.07,2.83-2.49,2-7.45,2l-27,0c-8.48,0-31.07,1.64-34-2.29ZM8.4,92.56c.43-7.48,1.07-11.24,9.16-11.12C26,81.57,27,83.91,25,91.59,20.48,93,13.94,92.57,8.4,92.56ZM128.58,97.9c-9,0-13.36,1.52-14.52-1.76,2.78-1.37,127.2-1.66,131.69,0-1.58,2.65,1.24,1-3.15,1.67ZM249.27,88c3.54-1.12,1-1.45,5.25-.43l.12,16.88c-5-.13-6.24-1.16-6.48-6.23C248,94.22,248.12,91,249.27,88Z"/><path class="cls-1" d="M18,135.14c4.58,22.82,41.46,17.24,36.62-7.91-4.43-23.06-41.79-17.92-36.62,7.91m20.22-10.5c-2,4.61.25,1.32-3,2.78l-1.88-8.3h5.77A20.91,20.91,0,0,1,38.25,124.64Zm-12.1,1c1.52-3.27,1.64-3.3,4.76-4.82C35.07,130,36.23,130.09,26.15,125.67Zm12.88,3c-.34-3.64,1.2-5.52,3.55-7.61,3,1.44,2.52.92,3.87,4.22C44,126.89,42,128.46,39,128.69ZM24.57,128c3.41.5,5.89.84,8.08,3.18l-4.06,2.13a14.59,14.59,0,0,1-4.07.88ZM40,131.14c2-2.4,5-3.16,8.17-2.65L48,133.63A10.29,10.29,0,0,1,40,131.14Zm-13.61,6c2.64-2.56,3.72-3,7.48-4.08-.51,6.05-2,6.68-4.75,8.17Zm19.78,0c-1.7,3.29-1,2.3-3.59,3.83a10,10,0,0,1-3.82-7.63C42.51,133.75,43.56,134.55,46.17,137.14Zm-12.52,5.69c-.12-3,.42-6.34,2.83-8.26,2,2.32,2.49,4.6,2.33,8.39Z"/><path class="cls-1" d="M187.09,134.14c3.27,22.07,40.59,19.53,37-6-3.24-22.86-40.72-19.23-37,6m18.49-6.74c-.77-.89-.52-.17-1.4-1.84l-1.57-6.41,5.92.17a14.92,14.92,0,0,1-1,4.74Zm-5.48-6.52c1.45,2.81,3.38,5.05,2.64,7.48-2.05.44-4.86-1.56-7.35-2.8C197.41,120.79,196.35,122.47,200.1,120.88Zm8.31,7.49c-.74-2.44,1.17-4.52,2.61-7.47,5.55,2.33,3.62,2.11,4.7,4.62C213.24,126.81,210.5,128.81,208.41,128.37Zm-7.87,4.69-6.95.56.18-5.43c3.23.12,4.73,1.07,8.15,1.69Zm10.07,0-1.1-2.19a3.09,3.09,0,0,0-.29-1c3.42-.62,4.93-1.56,8.28-1.67l-.28,5.68C214.61,133.87,213.87,133.2,210.61,133Zm-10.07,0,3,1.2L200,141.19c-3.91-1.42-3.19-.83-4.58-4.64C198.32,135,198.52,135.5,200.54,133.06Zm10.07,0,.93,1.12c.14.12.39.35.56.47l3.59,1.93c-1.44,3.87-.69,3.18-4.62,4.65l-3.33-7.37Zm-5,1.65c.17.21.46.23.53.63a10.86,10.86,0,0,1,2.18,7.4l-5.42.16c-.11-2.7-.32-1.33.4-3.88a17.48,17.48,0,0,1,.86-2.36C205.94,133.15,204,136.57,205.58,134.69Z"/><path class="cls-1" d="M74.58,133.58c-5.1,0-9.76-1.64-11.22,2.56,3.58,2.24,48.74,2.29,52.32,0-.91-2.91-.11-2.61-5-2.67Z"/></g></g></svg>