<svg xmlns="http://www.w3.org/2000/svg" viewBox="0 0 241.7 77.72"><defs><style>.cls-1{fill:#090217;fill-rule:evenodd;}</style></defs><title>universal</title><g id="Слой_2" data-name="Слой 2"><g id="Слой_1-2" data-name="Слой 1"><path class="cls-1" d="M13.59,66.17c-4.3-35.92,46.27-34.35,40.87,0l111.14-.07c-3.71-35.73,45.41-34.51,41.1-.23,7.72-1,15.34-2.25,23.07-3.27,11.45-1.53,11.9-2.22,11.86-13.83,0-11.86,1.05-11.94-4.13-21.55a53.6,53.6,0,0,0-11.41-14.61C214.38,2.22,202.1.46,183.6.37,141.53.15,114.94-2.51,88.79,10.55,61.75,24.05,76.33,25.13,53,26.87c-13.57,1-35.46.24-43.66,8.26C6.1,38.34,6.92,39.4,4.64,43.37,2.22,47.58.57,45.76.25,51.69c-.8,14.8-.44,14.1,13.34,14.48M73.45,26.25c1.56-2.27,0-.33,1.76-2.07.23-.23.94-.86,1.18-1.06,14.2-11.81,33.17-18.57,53.47-19.37L124.12,25ZM137.6,3.69l41.51-.12L174,23.68l-40.92.93Zm44.7-.25c14-.54,38.44,3.36,37.7,17.29-5.63,3.95-33.47,2.46-42.64,2.81ZM163.46,29.73c2.22-1.93,3.23-1.48,6.53-1.52,5.53-.07,4.61-.72,6,2.95-2.24.93-3.88.92-7.06.86C164,31.94,164.57,32.7,163.46,29.73ZM117,33.46c-5.26,0-4.85.61-6-3.12,1.57-1,9.67-1.5,12.62.65C122.05,34.21,121.51,33.43,117,33.46ZM7.78,45.46C9.26,34.82,20.87,32.5,30,32.71,26.39,37.8,16.22,43.63,7.78,45.46ZM239.7,37.94l-.29,8.48-8.69-.59c-1.58-3.78-1.81-3.44-.27-7.72ZM2.07,53.73c3.48-.07,6.44-.56,6.54,3S5.45,60,2,60Z"/><path class="cls-1" d="M30.51,44.67C7.67,50.37,17.2,82.38,38.27,77.09s13.49-37.71-7.76-32.42M36,54.53A4.12,4.12,0,0,1,34,57.45c-.75-.86-2.06-2.52-2.17-4C31.4,48,30.66,50.78,35,50.09,36,51.64,37.56,47.2,36,54.53Zm-12.62,8.9c.09-6.08,1.42-8.91,4.14-11.71,3,1.55,3.68,1.68,4.52,7.09-4.85-.83-3.55-2.58-7.17-1,2.29,1.07,3.6,1,5.85,3-1,1-.24,1.05-2.93,1.91A23.35,23.35,0,0,1,23.42,63.43ZM40,69.66c-1.44-.93-.49.13-1.72-1.28-1.63-1.87-1.8-3.31-2-5.38,4.67.24,2.75,2.44,6.68.71-2.43-1.32-3.54-.94-5.66-3.41l5.81-2.59c-3.91-1.37-2,.64-7,.92.63-3.93,1.28-5,3.85-6.69C45.78,57.3,46.33,64.58,40,69.66Zm-7.64-6.74-3,7c-2.83-1.49-3-1.57-4.25-4.35ZM34,64.15a6.08,6.08,0,0,1,2.24,3.75c.46,6.55,1,2-2.24,3.62-1.79-1-3.51,2.55-1.88-4.36A6,6,0,0,1,34,64.15Z"/><path class="cls-1" d="M182.53,44.71c-23.15,6.11-12.73,38.51,8.54,32.2a16.78,16.78,0,0,0,11.27-20.62,16,16,0,0,0-19.81-11.58M186,57.44c-1.87-2.4-2-4.2-2.44-7.4l5.66.51C188,54,188.51,55.43,186,57.44Zm-8.84-2.83c2.3-2.92.72-1.72,4.21-2.93l2.85,7.23C180.33,58,178.83,57.58,177.13,54.61Zm11.09,3.92a8.22,8.22,0,0,1,1.34-4.15c1.42-2.44,1.15-1.58,2.64-2.65l3.06,4.43Zm-6.86,11.38c-1.38-.57-3.24.16-5.25-6.18-1.14-3.61-.89-3.9.86-7,2.24,3.56,2.29,1,5.88,4l-3.66,3.37c.17,0,2.83-.84,3.08-.87,2-.24.71-.09,2,.54Zm15.52-11.47v4.69c-8.29-.15-6.68-1.79-7.36-2.4C192.54,58.34,193.22,58.46,196.88,58.44ZM192,69.69c-2.59-1.9-3.42-3.38-3.64-6.6,4.6-.05,5.42,1.74,6.88,3.8Zm-8.05,1.75a10.8,10.8,0,0,1,1.9-7.42c2.59,2.07,2.66,3.51,2.46,7.52Z"/></g></g></svg>